# xmcd
#
# Track frame offsets: 
#        150
#        26847
#        46570
#        65152
#        85776
#        108647
#        129128
#        149166
#        167067
#        189203
#        222078
#
# Disc length: 3291 seconds
#
# Revision: 0
# Processed by: cddbd v1.5.2PL0 Copyright (c) Steve Scherf et al.
# Submitted via: ExactAudioCopy v0.95a5
#
DISCID=980cd90b
DTITLE=John Mayall - Tough
DYEAR=2009
DGENRE=Rock Blues
TTITLE0=Nothing To Do With Love
TTITLE1=Just What You're Looking For
TTITLE2=Playing With A Losing Hand
TTITLE3=An Eye For An Eye
TTITLE4=How Far Down
TTITLE5=Train To My Heart 
TTITLE6=Slow Train To Nowhere
TTITLE7=Number's Down
TTITLE8=That Good Old Rockin' Blues
TTITLE9=Tough Times Ahead
TTITLE10=The Sum Of Something
EXTD=
EXTT0=
EXTT1=
EXTT2=
EXTT3=
EXTT4=
EXTT5=
EXTT6=
EXTT7=
EXTT8=
EXTT9=
EXTT10=
PLAYORDER=
